<svg width="62" height="62" viewBox="0 0 62 62" fill="none" xmlns="http://www.w3.org/2000/svg">
<path d="M53.138 11.8868L49.7321 8.48099C48.7917 7.48974 47.1396 7.48974 46.1484 8.48099L23.375 31.2543L30.3646 38.2439L53.138 15.4706C54.1292 14.4793 54.1292 12.8272 53.138 11.8868ZM18.2917 35.7022C16.2694 35.7022 14.33 36.5056 12.9 37.9355C11.4701 39.3655 10.6667 41.305 10.6667 43.3272C10.6667 46.6568 7.71837 48.4106 5.58337 48.4106C7.92171 51.5114 11.9375 53.4939 15.75 53.4939C18.4464 53.4939 21.0323 52.4228 22.939 50.5162C24.8456 48.6095 25.9167 46.0236 25.9167 43.3272C25.9167 41.305 25.1134 39.3655 23.6834 37.9355C22.2534 36.5056 20.314 35.7022 18.2917 35.7022Z" fill="#2091F9"/>
</svg>
