<svg width="46" height="43" viewBox="0 0 46 43" fill="none" xmlns="http://www.w3.org/2000/svg">
<path d="M18.7497 41.7691C22.9031 40.1357 21.9931 35.6324 19.8931 32.7857C17.8164 29.8691 14.9464 27.8624 12.0531 25.9257C9.98865 24.6246 8.14542 23.0019 6.59307 21.1191C5.93973 20.3491 4.60973 18.9257 5.96307 18.6457C7.33973 18.3657 9.71973 19.7191 10.9331 20.2324C13.0564 21.1191 15.1564 22.1457 17.1164 23.3591L19.4731 19.3924C15.8331 16.9891 11.1664 14.8657 6.8264 14.2357C4.35307 13.8624 1.73973 14.3757 0.899732 17.0591C0.153066 19.3691 1.34307 21.7024 2.6964 23.5224C5.89307 27.7924 10.8631 29.8457 14.5731 33.5324C15.3664 34.3024 16.3231 35.2124 16.7897 36.2857C17.2797 37.3124 17.1631 37.3824 16.0664 37.3824C13.1731 37.3824 9.5564 35.1191 7.19973 33.6257L4.84307 37.5924C8.41307 39.7857 14.3864 43.2157 18.7497 41.7691ZM44.6264 5.36905C45.1397 4.85572 45.1397 4.01572 44.6264 3.52572L41.5931 0.492388C41.3487 0.256849 41.0225 0.125244 40.6831 0.125244C40.3436 0.125244 40.0175 0.256849 39.7731 0.492388L37.3931 2.87239L42.2464 7.72572L44.6264 5.36905ZM21.6664 18.5991V23.4524H26.5197L40.8697 9.10239L36.0164 4.24905L21.6664 18.5991Z" fill="#2091F9"/>
</svg>
