<svg width="390" height="348" viewBox="0 0 390 348" fill="none" xmlns="http://www.w3.org/2000/svg">
<g clip-path="url(#clip0_30_242)">
<path d="M209.775 321.364C288.083 321.364 351.565 303.218 351.565 280.834C351.565 258.45 288.083 240.303 209.775 240.303C131.466 240.303 67.9841 258.45 67.9841 280.834C67.9841 303.218 131.466 321.364 209.775 321.364Z" fill="#F5F5F5"/>
<path d="M344.678 123.167C344.678 123.167 319.561 148.296 333.74 185.584C347.919 222.871 309.433 284.883 309.433 284.883C309.433 284.883 309.838 284.822 310.612 284.688C362.199 275.577 387.831 216.549 359.145 172.699C348.494 156.398 339.723 137.271 344.678 123.167Z" fill="#2091F9"/>
<path d="M344.678 123.167C344.678 123.167 330.499 153.97 344.678 179.099C358.857 204.227 347.109 274.75 309.433 284.883" stroke="#535461" stroke-width="2" stroke-miterlimit="10"/>
<path d="M389.411 224.805C389.411 224.805 360.749 220.237 358.136 245.937C355.523 271.637 303.04 275.196 303.04 275.196C303.04 275.196 303.381 275.431 304.025 275.853C347.372 304.321 388.811 293.986 382.569 256.183C380.231 242.131 380.417 228.015 389.411 224.805Z" fill="#2091F9"/>
<path opacity="0.2" d="M389.411 224.805C389.411 224.805 360.749 220.237 358.136 245.937C355.523 271.638 303.04 275.196 303.04 275.196C303.04 275.196 303.381 275.431 304.025 275.853C347.372 304.321 388.811 293.986 382.569 256.183C380.231 242.131 380.417 228.015 389.411 224.805Z" fill="#F5F5F5"/>
<path d="M389.411 224.805C389.411 224.805 367.162 229.693 368.989 249.933C370.816 270.174 335.936 294.428 303.024 275.188" stroke="#535461" stroke-width="2" stroke-miterlimit="10"/>
<path opacity="0.2" d="M61.8345 26.3965C58.5693 26.2831 55.223 26.3965 52.1603 27.5395C43.8271 30.6482 39.8772 40.8172 41.1614 49.6245C42.4457 58.4317 47.7284 66.0798 53.2096 73.0875C58.6908 80.0952 64.6298 87.0137 67.6357 95.3792C69.1347 99.5578 69.8355 104.239 68.3123 108.41C65.9626 114.842 58.8772 118.437 52.0753 119.183C45.2734 119.928 38.4431 118.473 31.6169 117.967C28.7528 117.764 25.8076 117.74 23.1095 118.68C20.1481 119.705 17.681 121.797 15.4123 123.977C6.56053 132.529 -0.524933 144.202 0.621544 156.458C1.91791 170.352 13.4799 181.336 26.1438 187.225C30.3368 189.179 34.7728 190.759 38.4634 193.548C48.1862 200.9 50.3697 214.676 49.4015 226.839C48.4333 239.002 45.1356 251.178 46.9708 263.236C49.1301 277.259 58.6868 289.925 71.5775 295.842C83.0626 301.111 97.4361 300.783 107.633 293.329C112.604 289.682 116.363 284.652 119.632 279.435C124.567 271.566 128.571 263.149 131.563 254.355C132.985 250.177 134.322 245.682 137.64 242.776C139.665 240.988 142.29 239.987 144.887 239.209C152.714 236.866 160.958 236.222 168.858 234.139C176.758 232.056 184.706 228.173 189 221.23C195.077 211.377 192.241 198.776 192.27 187.184C192.318 160.775 208.114 137.129 213.943 111.393C215.847 102.979 216.556 93.6688 212.303 86.1666C209.41 81.0476 204.536 77.3999 199.412 74.5628C188.15 68.3049 175.348 65.5205 162.753 62.809C145.248 59.0478 123.991 58.5614 110.424 46.3942C97.4036 34.7215 79.5907 26.3965 61.8345 26.3965Z" fill="#2091F9"/>
<g opacity="0.5">
<path opacity="0.5" d="M125.332 128.618C125.331 122.253 124.335 115.926 122.379 109.869L117.518 94.7875C117.518 94.5362 117.518 94.289 117.518 94.0417C117.667 84.3752 110.136 79.5521 107.236 80.075C104.266 80.61 96.0262 76.4759 96.0262 76.4759V76.5894C95.4613 75.9387 94.9517 75.2418 94.503 74.5061C95.9267 73.4687 97.1287 72.1571 98.0385 70.6483C98.9483 69.1395 99.5474 67.4639 99.8006 65.7202C100.054 63.9764 99.9562 62.1996 99.5132 60.4941C99.0703 58.7887 98.291 57.189 97.2213 55.7892C98.1119 55.1197 98.7912 54.208 99.178 53.1628C99.8505 51.2701 99.336 49.1098 98.2422 47.4237C97.7771 46.7199 97.2334 46.0713 96.6217 45.4904C95.6952 44.5721 94.6832 43.7442 93.5996 43.0181C90.8975 41.1456 87.928 39.5365 84.687 38.9651C84.1262 38.8326 83.5423 38.8326 82.9815 38.9651C82.4948 39.1616 82.0314 39.4117 81.6001 39.7108C79.38 40.9754 76.6171 40.4282 74.0568 40.2944C71.4965 40.1607 68.3852 40.8781 67.575 43.2815C67.3238 44.0232 67.34 44.8257 67.1698 45.5877C66.7647 47.4521 65.3266 48.899 64.2165 50.4513C63.1065 52.0037 62.276 54.0991 63.1997 55.7851C63.5157 56.3526 64.0099 56.8754 64.0099 57.5239C64.0099 57.99 63.7345 58.4075 63.6048 58.8533C63.3253 59.8665 63.8519 60.8798 64.6622 61.6134C65.0113 61.99 65.4224 62.3039 65.8775 62.5415C67.1617 63.1981 68.6404 63.4008 69.9489 64.0087C70.6021 64.3156 71.2013 64.7262 71.7233 65.2247C72.3628 65.8944 72.8626 66.6847 73.1937 67.5497C73.5248 68.4146 73.6805 69.3368 73.6517 70.2626L73.9231 70.2909C73.9231 70.372 73.9231 70.449 73.9231 70.5301C74.2067 70.5625 74.5065 70.5909 74.8022 70.603C75.2276 71.2901 75.7144 71.9372 76.2566 72.5363C76.1648 72.8822 76.0608 73.2334 75.9446 73.5901C74.9926 74.2508 67.2063 79.4386 58.3505 78.1903C48.8991 76.8569 43.4949 118.198 43.4949 118.198C43.1446 120.562 42.9739 122.949 42.9844 125.339C42.9439 131.419 44.22 139.375 51.3298 138.204L55.1096 136.959V157.407C55.1096 157.407 55.6484 163.008 53.7605 166.729C51.8727 170.449 59.7036 169.128 59.7036 169.128C59.7036 169.128 60.0033 169.44 60.5543 169.971L60.3801 170.462L60.611 170.697C59.5811 174.219 58.1924 177.627 56.4667 180.866L56.6895 180.979C56.5477 181.251 56.4667 181.385 56.4667 181.385C56.4667 181.385 59.3754 182.872 63.378 184.789C66.5946 195.667 73.6355 220.861 71.3182 225.66L71.383 225.798C71.8165 226.697 74.2391 232.003 73.7489 236.863C73.3073 241.207 79.3193 260.95 81.5636 268.119L80.5022 268.334L84.2819 281.936L83.4717 290.739C83.4717 290.739 78.8817 303.008 89.6821 300.609C100.482 298.209 97.513 288.34 97.513 288.34L97.7844 268.334C97.7844 268.334 96.7433 267.755 95.4591 267.199C94.5759 264.812 92.6516 259.17 92.6516 255.267C92.6516 250.201 89.1392 228.327 89.1392 228.327V228.282V228.197V228.173L89.119 227.881V227.832C89.119 227.561 89.0744 227.188 89.042 226.734V226.71C88.6369 220.796 87.4216 200.705 88.3088 190.232C89.089 189.7 89.9007 189.215 90.7395 188.781C93.3687 195.428 100.146 213.387 99.7128 220.922C99.174 230.244 99.5791 222.924 99.7128 221.733C99.7533 221.364 99.7816 221.81 99.7938 222.811C99.7938 222.993 99.7938 223.196 99.7938 223.41C99.7938 223.625 99.7938 223.864 99.7938 224.112C99.7938 224.359 99.7938 224.626 99.7938 224.922C99.7938 225.063 99.7938 225.206 99.7938 225.352C99.7938 225.644 99.7938 225.949 99.7938 226.268C99.7938 226.427 99.7938 226.589 99.7938 226.754C99.7938 227.565 99.7938 228.465 99.7654 229.401C99.7654 229.587 99.7654 229.776 99.7654 229.968C99.7654 230.54 99.7654 231.123 99.7371 231.715C99.7371 232.526 99.7047 233.312 99.6885 234.127C99.648 235.951 99.5953 237.795 99.5305 239.521C99.5305 239.713 99.5237 239.904 99.5102 240.093C99.4967 240.471 99.4819 240.841 99.4657 241.203C99.4495 241.565 99.4333 241.919 99.417 242.265C99.4008 242.608 99.3833 242.942 99.3644 243.266C99.3441 243.647 99.3198 244.012 99.2996 244.361L97.833 244.15L97.5211 247.522C97.0297 252.876 97.7212 258.272 99.5467 263.329C100.049 264.715 100.438 265.862 100.523 266.271C100.794 267.605 100.523 277.214 100.523 277.214C100.523 277.214 102.143 289.751 109.707 287.347C113.11 286.265 114.763 282.974 115.553 279.675C116.429 275.85 116.102 271.848 114.617 268.217C113.543 265.517 112.446 261.732 113.219 258.806C114.568 253.739 114.568 246.537 114.568 246.537L113.734 246.42C113.942 246.024 114.13 245.618 114.297 245.204C114.297 245.204 114.026 226.799 116.456 224.399C117.793 223.078 117.672 219.905 117.266 217.311C116.688 213.557 116.552 209.748 116.861 205.962C117.027 204.013 117.266 202.314 117.546 201.711C118.259 200.3 118.972 186.082 115.816 179.241L116.464 179.038L116.363 178.535L116.464 178.503C116.94 179.774 117.481 181.02 118.085 182.236C118.244 182.361 118.428 182.452 118.624 182.503C127.37 180.967 127.722 172.8 127.236 168.342C127.605 168.52 127.808 168.634 127.808 168.634L128.618 156.88C129.448 155.003 129.756 152.608 129.736 150.018C129.772 140.761 125.332 128.618 125.332 128.618ZM115.691 162.027C115.091 156.908 114.26 152.089 114.26 152.089L110.209 137.685V132.44L116.634 156.434L115.691 162.027Z" fill="url(#paint0_linear_30_242)"/>
</g>
<path d="M97.4765 240.709L97.1767 244.004C96.7037 249.24 97.3741 254.516 99.1415 259.466C99.6236 260.824 100 261.943 100.081 262.344C100.341 263.649 100.081 273.032 100.081 273.032C100.081 273.032 101.645 285.284 108.941 282.937C112.223 281.883 113.803 278.661 114.58 275.439C115.424 271.702 115.107 267.797 113.673 264.245C112.636 261.606 111.575 257.898 112.324 255.048C113.628 250.096 113.628 243.06 113.628 243.06L97.4765 240.709Z" fill="#5A5773"/>
<path d="M89.6619 184.145C89.6619 184.145 99.8222 208.909 99.2996 218.028C98.777 227.147 99.1699 219.982 99.2996 218.81C99.5305 216.723 99.2996 241.507 98.5177 244.344C98.5177 244.344 109.201 252.163 113.369 241.738C113.369 241.738 113.11 223.755 115.452 221.408C116.74 220.119 116.614 217.015 116.233 214.482C115.671 210.817 115.535 207.1 115.828 203.405C115.986 201.5 116.205 199.822 116.489 199.25C117.271 197.686 118.052 179.962 113.361 175.009L89.6619 184.145Z" fill="#605D82"/>
<path opacity="0.1" d="M99.8221 244.357C100.604 241.491 100.835 216.723 100.604 218.822C100.474 219.994 100.081 227.164 100.604 218.04C101.127 208.917 90.9663 184.157 90.9663 184.157L113.697 175.41C113.592 175.277 113.483 175.151 113.373 175.033L89.6659 184.157C89.6659 184.157 99.8262 208.921 99.3036 218.04C98.781 227.16 99.174 219.994 99.3036 218.822C99.5345 216.735 99.3036 241.519 98.5217 244.357C98.5217 244.357 102.788 247.477 106.981 247.145C103.249 246.865 99.8221 244.357 99.8221 244.357Z" fill="black"/>
<path d="M80.802 264.427L84.448 277.721L83.6662 286.322C83.6662 286.322 79.2383 298.31 89.6578 295.964C100.077 293.617 97.2132 283.975 97.2132 283.975L97.4725 264.427C97.4725 264.427 93.3039 262.08 91.4808 262.344C89.6578 262.607 80.802 264.427 80.802 264.427Z" fill="#5A5773"/>
<path d="M62.827 177.891C62.827 177.891 74.8103 216.727 71.9462 222.721C71.9462 222.721 74.8103 228.457 74.2918 233.665C73.7732 238.873 82.6291 266.766 82.6291 266.766L95.6576 264.419C95.6576 264.419 92.5301 256.601 92.5301 251.648C92.5301 246.695 89.1433 225.303 89.1433 225.303C89.1433 225.303 86.2792 186.204 89.6659 182.033L62.827 177.891Z" fill="#605D82"/>
<g opacity="0.1">
<path opacity="0.1" d="M88.6531 185.211C86.4938 194.063 88.88 226.637 88.88 226.637C88.88 226.637 92.2667 248.008 92.2667 252.981C92.2667 256.763 94.0857 262.21 94.9486 264.577L95.6535 264.452C95.6535 264.452 92.526 256.633 92.526 251.68C92.526 246.728 89.1392 225.336 89.1392 225.336C89.1392 225.336 86.9597 195.566 88.6531 185.211Z" fill="black"/>
<path opacity="0.1" d="M71.9462 222.721L72.011 222.855C72.0312 222.721 72.0515 222.58 72.0637 222.45C72.0292 222.542 71.99 222.633 71.9462 222.721Z" fill="black"/>
<path opacity="0.1" d="M89.0745 183.314C89.1928 182.864 89.3919 182.44 89.6619 182.061L62.827 177.891C62.827 177.891 62.985 178.398 63.2564 179.301L89.0745 183.314Z" fill="black"/>
</g>
<path d="M125.353 163.815C125.353 163.815 129.262 178.406 117.538 180.497C117.348 180.447 117.17 180.359 117.015 180.238C117.015 180.238 110.242 166.944 115.452 161.731L125.353 163.815Z" fill="#FAC3CA"/>
<path d="M77.4152 66.8621C77.4152 66.8621 78.197 77.8052 69.6005 83.0215C61.004 88.2378 87.8307 102.569 87.8307 102.569L101.9 80.152C101.9 80.152 95.9127 80.9261 92.2667 70.5098L77.4152 66.8621Z" fill="#FAC3CA"/>
<path opacity="0.1" d="M71.6829 83.7957C71.6829 83.7957 84.9707 111.425 96.954 85.3601L115.452 177.105C115.452 177.105 86.7896 185.969 86.5344 190.139C86.2792 194.31 57.6213 179.455 57.6213 179.455C57.6213 179.455 63.8723 167.985 62.3126 160.949C60.7529 153.913 71.6829 83.7957 71.6829 83.7957Z" fill="black"/>
<path d="M71.6829 83.2728C71.6829 83.2728 84.9707 110.902 96.954 84.8373L115.452 176.586C115.452 176.586 86.7896 185.45 86.5344 189.62C86.2792 193.791 57.6213 178.932 57.6213 178.932C57.6213 178.932 63.8723 167.462 62.3126 160.426C60.7529 153.39 71.6829 83.2728 71.6829 83.2728Z" fill="#E1E7EF"/>
<path d="M84.7114 271.727C84.7114 271.727 81.3246 264.168 89.1393 264.168C96.9539 264.168 95.6535 270.944 95.6535 270.944L84.7114 271.727Z" fill="#5A5773"/>
<path d="M102.427 252.175C102.427 252.175 99.2996 244.093 107.118 243.834C114.937 243.574 111.028 251.129 111.028 251.129L102.427 252.175Z" fill="#5A5773"/>
<path opacity="0.1" d="M95.7832 77.3999C95.7832 77.3999 103.728 81.453 106.596 80.918C109.464 80.383 117.015 85.3479 116.497 95.2535L121.204 110.031C123.087 115.956 124.044 122.137 124.04 128.355C124.04 128.355 130.814 147.12 127.168 155.461L126.386 166.931C126.386 166.931 120.394 163.543 114.139 164.585L115.715 155.218L108.666 128.626L96.9418 100.214L95.7832 77.3999Z" fill="black"/>
<path d="M95.7832 76.8852C95.7832 76.8852 103.728 80.9382 106.596 80.4032C109.464 79.8682 117.015 84.8332 116.497 94.7388L121.204 109.516C123.087 115.441 124.044 121.622 124.04 127.84C124.04 127.84 130.814 146.605 127.168 154.947L126.386 166.417C126.386 166.417 120.394 163.028 114.139 164.07L115.703 154.687L108.666 128.103L96.954 99.6916L95.7832 76.8852Z" fill="#67647E"/>
<path opacity="0.1" d="M108.941 108.556V138.009L112.851 152.085C112.851 152.085 115.456 167.462 114.674 172.156C113.892 176.849 101.386 177.891 97.9992 173.98C94.6124 170.069 96.4354 136.692 96.4354 136.692L95.7832 87.8324L96.3058 86.268L108.941 108.556Z" fill="black"/>
<path d="M109.476 107.255V136.708L113.385 150.784C113.385 150.784 115.99 166.161 115.208 170.855C114.427 175.548 101.921 176.59 98.5339 172.679C95.1471 168.767 96.9701 135.391 96.9701 135.391L96.3179 86.5193L109.476 107.255Z" fill="#67647E"/>
<path opacity="0.1" d="M56.965 131.755L65.3022 157.695L61.3929 168.772C61.3929 168.772 79.8905 188.319 91.6145 178.937C91.6145 178.937 92.919 139.055 90.31 129.672C87.7011 120.289 75.1992 88.7363 75.1992 88.7363L72.6105 80.4073L58.8042 88.2256L56.965 131.755Z" fill="black"/>
<path d="M56.3127 130.45V155.984C56.3127 155.984 56.8353 161.46 55.0083 165.108C53.1812 168.755 60.7406 167.454 60.7406 167.454C60.7406 167.454 79.2382 187.002 90.9623 177.619C90.9623 177.619 92.2667 137.737 89.6578 128.355C87.0488 118.972 74.547 87.419 74.547 87.419L71.9421 79.0779L58.1357 86.8962L56.3127 130.45Z" fill="#67647E"/>
<path opacity="0.1" d="M76.5037 74.5426C76.5037 74.5426 68.5594 80.4073 59.4402 79.1022C50.3211 77.7972 45.1113 118.202 45.1113 118.202C45.1113 118.202 41.7246 139.055 52.6667 137.231L76.8967 129.149C76.8967 129.149 71.6869 123.673 72.4688 116.637L60.7407 121.327L61.2673 98.9135L76.5037 74.5426Z" fill="black"/>
<path opacity="0.1" d="M45.6299 117.679C45.6299 117.679 42.2431 138.532 53.1853 136.708L77.4152 128.626C77.4152 128.626 72.2054 123.155 72.9873 116.115L61.2673 120.808L45.6299 117.679Z" fill="black"/>
<path d="M72.4121 118.862C72.4121 118.862 80.5428 108.167 86.5304 113.302C92.518 118.437 74.5592 127.848 74.5592 127.848L72.4121 118.862Z" fill="#FAC3CA"/>
<path d="M76.5037 74.0197C76.5037 74.0197 68.5594 79.8845 59.4402 78.5794C50.3211 77.2743 45.1113 117.679 45.1113 117.679C45.1113 117.679 41.7246 138.532 52.6667 136.708L76.8967 128.626C76.8967 128.626 71.6869 123.151 72.4688 116.115L60.7407 120.808L61.2673 98.3906L74.5551 87.4474L76.5037 74.0197Z" fill="#67647E"/>
<path opacity="0.1" d="M92.5261 71.0205L77.6746 67.3728C77.6746 67.3728 78.4483 68.2482 77.5449 71.673C79.9351 74.4169 82.8722 78.0606 86.7937 78.0606C89.6001 78.0659 92.3323 77.1599 94.58 75.4788C93.7413 74.0688 93.0528 72.5745 92.5261 71.0205Z" fill="black"/>
<path d="M86.5344 77.5418C93.7298 77.5418 99.5629 71.7061 99.5629 64.5073C99.5629 57.3085 93.7298 51.4727 86.5344 51.4727C79.3389 51.4727 73.5059 57.3085 73.5059 64.5073C73.5059 71.7061 79.3389 77.5418 86.5344 77.5418Z" fill="#FAC3CA"/>
<path opacity="0.1" d="M91.4728 58.8492C94.4949 58.3345 97.8169 56.993 98.8297 54.0991C99.4779 52.2469 98.9836 50.1393 97.9263 48.4897C96.8689 46.8401 95.3133 45.5715 93.709 44.4367C91.1041 42.6047 88.2318 41.0321 85.0963 40.4809C84.5556 40.3516 83.9921 40.3516 83.4515 40.4809C82.9813 40.6734 82.5343 40.9181 82.1187 41.2104C79.9756 42.4466 77.3099 41.9116 74.8266 41.7819C72.3432 41.6522 69.3656 42.3534 68.5837 44.7001C68.3407 45.4256 68.3569 46.2078 68.1786 46.9536C67.7735 48.7775 66.4002 50.196 65.3428 51.7159C64.2855 53.2358 63.4712 55.2907 64.3624 56.9281C64.6663 57.4834 65.1727 57.9941 65.1727 58.6263C65.0945 59.0757 64.9583 59.513 64.7676 59.9274C64.3989 61.273 65.4725 62.6307 66.7121 63.2711C67.9518 63.9115 69.3778 64.1101 70.6417 64.7059C71.8248 65.2899 72.8152 66.2016 73.4953 67.3326C74.1755 68.4635 74.5166 69.7661 74.4782 71.0853C75.6287 71.2191 76.9696 71.288 77.7475 70.4288C78.0959 70.0437 78.266 69.529 78.582 69.1196C78.9871 68.5846 79.6191 68.2685 80.1376 67.8389C82.8641 65.5975 80.9276 62.501 82.4711 60.0854C83.2813 58.8411 84.5696 59.2221 85.8741 59.2424C87.7485 59.2863 89.6229 59.1546 91.4728 58.8492Z" fill="black"/>
<path d="M91.2135 58.5898C94.2357 58.0751 97.5576 56.7336 98.5704 53.8397C99.2186 51.9875 98.7243 49.8799 97.667 48.2303C96.6096 46.5807 95.054 45.3121 93.4497 44.1773C90.8448 42.3453 87.9726 40.7727 84.837 40.2215C84.2963 40.0922 83.7328 40.0922 83.1922 40.2215C82.7221 40.414 82.275 40.6587 81.8594 40.951C79.7163 42.1872 77.0507 41.6522 74.5673 41.5225C72.0839 41.3928 69.1063 42.094 68.3245 44.4407C68.0814 45.1662 68.0976 45.9484 67.9194 46.6942C67.5142 48.5181 66.1409 49.9366 65.0836 51.4565C64.0262 52.9764 63.2119 55.0313 64.1032 56.6687C64.407 57.224 64.9134 57.7347 64.9134 58.3669C64.8352 58.8163 64.699 59.2537 64.5083 59.668C64.1396 61.0136 65.2132 62.3713 66.4528 63.0117C67.6925 63.6521 69.1185 63.8507 70.3825 64.4465C71.5703 65.0299 72.565 65.9434 73.2476 67.0777C73.9301 68.2119 74.2715 69.5189 74.2311 70.8422C75.3816 70.9759 76.7225 71.0448 77.5003 70.1856C77.8487 69.8005 78.0189 69.2858 78.3349 68.8764C78.74 68.3414 79.372 68.0253 79.8905 67.5957C82.6169 65.3544 80.6805 62.2578 82.224 59.8422C83.0342 58.5979 84.3225 58.9789 85.627 58.9992C87.4978 59.037 89.3681 58.8999 91.2135 58.5898Z" fill="#4A4347"/>
<path opacity="0.1" d="M106.985 102.431C106.985 102.431 109.849 117.29 108.548 123.025C107.754 126.361 107.871 129.85 108.889 133.125" fill="black"/>
<path opacity="0.1" d="M60.684 108.685C60.684 108.685 59.4362 118.591 61.5144 120.674L60.684 108.685Z" fill="black"/>
<path d="M133.431 230.759C133.592 230.759 133.746 230.695 133.86 230.581C133.974 230.467 134.038 230.312 134.038 230.151C134.038 229.989 133.974 229.835 133.86 229.721C133.746 229.607 133.592 229.543 133.431 229.543C133.269 229.543 133.115 229.607 133.001 229.721C132.887 229.835 132.823 229.989 132.823 230.151C132.823 230.312 132.887 230.467 133.001 230.581C133.115 230.695 133.269 230.759 133.431 230.759Z" fill="black"/>
<g opacity="0.5">
<path opacity="0.5" d="M320.541 159.932V159.595L210.01 74.5628C209.94 74.5112 209.855 74.4833 209.769 74.4833C209.682 74.4833 209.597 74.5112 209.527 74.5628L98.9917 159.595V291.4H99.2024V291.611H320.756V159.806L320.541 159.932Z" fill="url(#paint1_linear_30_242)"/>
</g>
<path d="M316.725 287.724H102.824V160.459L209.775 78.1822L316.725 160.459V287.724Z" fill="white"/>
<path d="M309.028 280.181H110.521V162.076L209.775 85.7209L309.028 162.076V280.181Z" fill="#E0E0E0"/>
<path d="M243.447 83.9562L122.358 115.715L162.732 269.793L283.821 238.034L243.447 83.9562Z" fill="#2091F9"/>
<path d="M272.973 107.364H147.792V266.648H272.973V107.364Z" fill="#F5F5F5"/>
<path opacity="0.05" d="M103.837 160.661L210.787 224.294L103.837 287.927V160.661Z" fill="black"/>
<path d="M103.027 160.661L209.977 224.294L103.027 287.927V160.661Z" fill="white"/>
<path opacity="0.05" d="M316.117 160.661L209.167 224.294L316.117 287.927V160.661Z" fill="black"/>
<path d="M316.928 160.661L209.977 224.294L316.928 287.927V160.661Z" fill="white"/>
<path opacity="0.05" d="M103.027 285.9L209.977 202.408L316.928 285.9H103.027Z" fill="black"/>
<path d="M103.027 287.927L209.977 204.434L316.928 287.927H103.027Z" fill="white"/>
<path d="M124.761 297.593C124.761 297.593 119.389 279.354 125.77 265.923C128.481 260.308 129.298 253.965 128.099 247.846C127.508 244.946 126.652 242.107 125.543 239.363" stroke="#535461" stroke-width="2" stroke-miterlimit="10"/>
<path d="M129.509 230.876C129.509 233.113 125.458 239.594 125.458 239.594C125.458 239.594 121.407 233.109 121.407 230.876C121.407 229.801 121.834 228.77 122.593 228.01C123.353 227.25 124.383 226.823 125.458 226.823C126.532 226.823 127.563 227.25 128.322 228.01C129.082 228.77 129.509 229.801 129.509 230.876Z" fill="#6C63FF"/>
<path d="M136.214 243.262C134.998 245.139 128.079 248.381 128.079 248.381C128.079 248.381 128.205 240.737 129.42 238.861C130.026 238.012 130.935 237.429 131.96 237.235C132.984 237.04 134.044 237.247 134.919 237.814C135.794 238.381 136.417 239.264 136.658 240.279C136.899 241.293 136.74 242.362 136.214 243.262Z" fill="#6C63FF"/>
<path d="M135.906 264.423C133.909 265.428 126.301 264.735 126.301 264.735C126.301 264.735 130.267 258.202 132.26 257.197C132.737 256.93 133.263 256.762 133.806 256.704C134.35 256.645 134.9 256.698 135.422 256.858C135.945 257.018 136.43 257.282 136.848 257.634C137.266 257.986 137.609 258.42 137.855 258.908C138.101 259.396 138.246 259.929 138.281 260.475C138.316 261.021 138.24 261.568 138.058 262.084C137.875 262.599 137.591 263.073 137.221 263.476C136.851 263.878 136.404 264.202 135.906 264.427V264.423Z" fill="#6C63FF"/>
<path d="M132.082 280.388C130.283 281.717 122.667 282.317 122.667 282.317C122.667 282.317 125.47 275.208 127.269 273.879C128.134 273.301 129.189 273.079 130.214 273.258C131.238 273.437 132.155 274.003 132.774 274.84C133.393 275.677 133.666 276.72 133.537 277.753C133.408 278.785 132.887 279.729 132.082 280.388Z" fill="#6C63FF"/>
<path d="M119.568 248.811C121.188 250.367 128.638 251.984 128.638 251.984C128.638 251.984 126.811 244.563 125.207 243.007C124.426 242.317 123.41 241.954 122.37 241.994C121.329 242.033 120.344 242.472 119.618 243.22C118.892 243.967 118.482 244.965 118.473 246.007C118.463 247.049 118.855 248.055 119.568 248.815V248.811Z" fill="#6C63FF"/>
<path d="M115.33 267.54C117.327 268.545 124.935 267.852 124.935 267.852C124.935 267.852 120.969 261.318 118.976 260.313C118.024 259.883 116.943 259.837 115.959 260.185C114.974 260.533 114.161 261.248 113.691 262.181C113.221 263.114 113.129 264.193 113.434 265.192C113.739 266.191 114.419 267.034 115.33 267.544V267.54Z" fill="#6C63FF"/>
<path d="M113.71 286.305C115.508 287.635 123.124 288.235 123.124 288.235C123.124 288.235 120.321 281.126 118.522 279.796C118.098 279.449 117.607 279.191 117.08 279.039C116.553 278.887 116 278.844 115.456 278.912C114.912 278.98 114.387 279.158 113.913 279.435C113.44 279.712 113.027 280.082 112.701 280.524C112.375 280.965 112.141 281.468 112.015 282.002C111.889 282.536 111.873 283.09 111.967 283.631C112.061 284.171 112.264 284.687 112.564 285.147C112.863 285.607 113.253 286.001 113.71 286.305Z" fill="#6C63FF"/>
<path opacity="0.5" d="M205.318 114.66H155.084V118.713H205.318V114.66Z" fill="#6C63FF"/>
<path opacity="0.5" d="M263.655 130.872H155.084V134.925H263.655V130.872Z" fill="#6C63FF"/>
<path opacity="0.5" d="M263.655 141.41H155.084V145.463H263.655V141.41Z" fill="#6C63FF"/>
<path opacity="0.4" d="M263.655 151.947H155.084V156H263.655V151.947Z" fill="#6C63FF"/>
<path opacity="0.4" d="M263.655 162.485H155.084V166.538H263.655V162.485Z" fill="#6C63FF"/>
<path opacity="0.3" d="M217.067 173.023H155.084V177.076H217.067V173.023Z" fill="#6C63FF"/>
<path opacity="0.3" d="M239.753 183.561H155.084V187.614H239.753V183.561Z" fill="#6C63FF"/>
</g>
<defs>
<linearGradient id="paint0_linear_30_242" x1="42.9885" y1="169.914" x2="129.691" y2="169.914" gradientUnits="userSpaceOnUse">
<stop stop-color="#808080" stop-opacity="0.25"/>
<stop offset="0.54" stop-color="#808080" stop-opacity="0.12"/>
<stop offset="1" stop-color="#808080" stop-opacity="0.1"/>
</linearGradient>
<linearGradient id="paint1_linear_30_242" x1="141325" y1="160868" x2="141325" y2="44542.2" gradientUnits="userSpaceOnUse">
<stop stop-color="#808080" stop-opacity="0.25"/>
<stop offset="0.54" stop-color="#808080" stop-opacity="0.12"/>
<stop offset="1" stop-color="#808080" stop-opacity="0.1"/>
</linearGradient>
<clipPath id="clip0_30_242">
<rect width="389" height="295" fill="white" transform="translate(0.5 26.3642)"/>
</clipPath>
</defs>
</svg>
